<?xml version="1.0" encoding="UTF-8" standalone="no"?>
<!DOCTYPE svg  PUBLIC '-//W3C//DTD SVG 1.1//EN'  'http://www.w3.org/Graphics/SVG/1.1/DTD/svg11.dtd'>
<svg xmlns="http://www.w3.org/2000/svg">
<defs>
<font id="UnskinnyBop-Regular" horiz-adv-x="1000">
<font-face underline-position="-100" font-weight="500" descent="-200" panose-1="2 0 6 3 0 0 0 0 0 0" units-per-em="1000" unicode-range="U+0020-201D" bbox="-46 -230 911 836" x-height="495" underline-thickness="50" font-family="UnskinnyBop" ascent="800" cap-height="744"/>
<missing-glyph/>
<glyph glyph-name=".notdef"/>
<glyph glyph-name=".null" horiz-adv-x="0"/>
<glyph glyph-name="nonmarkingreturn"/>
<glyph glyph-name="space" horiz-adv-x="300" unicode=" "/>
<glyph glyph-name="exclam" horiz-adv-x="254" unicode="!" d="M141 40q0 -15 -15 -15t-15 15t15 15t15 -15zM144 740q0 -87 5 -262t5 -262q0 -15 -15 -15t-15 15q0 87 -5 262t-5 262q0 15 15 15t15 -15z"/>
<glyph glyph-name="quotedbl" horiz-adv-x="372" unicode='&quot;' d="M272 737q-2 0 -2 -58v-45l2 -104q0 -6 -4 -10t-11 -5q-15 0 -15 15q0 24 -1 66t-1 77t2 66q0 6 5 10t11 4t10 -5t4 -11zM130 686q-2 -32 -2 -54v-62t1 -57q0 -15 -15 -15t-15 15q-1 16 -1 56v63q0 22 2 56t6 60q1 6 6 10q4 3 9 3h2q6 -1 10 -6q3 -4 3 -9z"/>
<glyph glyph-name="numbersign" horiz-adv-x="599" unicode="#" d="M222 743q-12 -55 -27 -169l-10 -76q25 0 76 2t76 2q22 152 35 254q1 6 6 10q4 3 9 3h2q6 -1 10 -6t3 -11q-13 -101 -34 -249q65 2 116 2q15 0 15 -15t-15 -15q-53 0 -121 -2l-25 -171q60 1 108 1q15 0 15 -15t-15 -15q-49 0 -112 -1q-18 -124 -29 -216q-1 -6 -6 -10 t-11 -3t-10 6t-3 11q11 90 29 211q-22 -1 -74 -3t-82 -1q-26 -145 -35 -222q-1 -6 -6 -10q-4 -3 -9 -3h-2q-6 1 -10 6t-3 11q10 76 35 217q-51 -1 -93 -1q-15 0 -15 15t15 15q44 0 98 1q13 69 19 110q5 28 9 61q-63 -2 -114 -2q-15 0 -15 15t15 15q52 0 118 2l10 80 q14 107 27 172q2 5 7 9t11 2t10 -6q4 -5 2 -11zM308 301l25 171q-24 0 -75 -2l-77 -3q-4 -35 -9 -65l-18 -105q26 -1 78 1t76 3z"/>
<glyph glyph-name="dollar" horiz-adv-x="565" unicode="$" d="M420 669q-21 29 -65 45q-37 13 -78 13h-16q6 -152 9 -306q30 -12 50 -21q20 -8 46 -24t44 -38t32 -50q24 -54 24 -101q0 -8 -1 -17q-6 -60 -63 -96t-131 -40h-3q-3 -34 -7 -65q-1 -6 -6 -10q-4 -3 -9 -3h-2q-6 1 -10 6t-3 11q4 29 7 61q-68 5 -122 39t-74 97q-1 3 -1 5 q-1 3 1 7q2 6 9 7q5 1 11 -1t8 -8q18 -54 64 -83t106 -33q2 42 2 132q0 67 -1 161q0 21 -1 42q-26 11 -42 17t-38 18t-36 26t-26 34t-18 46q-5 25 -5 47q0 55 30 96q37 50 109 67l16 4q-1 33 -3 66q0 8 4 12q5 4 11 4t10 -4t5 -10q1 -33 3 -65h16q48 1 92 -15q51 -18 76 -57 q8 -13 -4 -21t-20 5zM270 388q1 -15 1 -31q1 -93 1 -161q0 -90 -2 -132q66 4 113 34t52 76q1 7 1 14q0 40 -22 88q-20 42 -54 66t-90 46zM240 432q-3 146 -9 291l-10 -2q-61 -14 -91 -55q-24 -33 -24 -79q0 -20 4 -41q9 -44 40 -68t90 -46z"/>
<glyph glyph-name="percent" horiz-adv-x="838" unicode="%" d="M157 37q19 37 43 76t58 90t46 71l78 120l88 138q28 44 69 119t68 138q4 10 12 10q3 0 8 -2q14 -6 8 -20q-27 -64 -69 -140t-70 -121l-88 -138l-78 -120l-48 -72q-34 -50 -57 -88t-40 -75q-5 -9 -12 -9q-5 0 -9 2q-14 6 -7 21zM181 731q-44 0 -75 -37t-35 -88 q-1 -7 -1 -13q0 -42 24 -71q29 -38 90 -38q64 0 99 37q33 35 33 83v5q-1 48 -34 84t-93 41q-3 -3 -8 -3zM620 321q-18 6 -35 6q-30 0 -59 -18q-45 -28 -66 -81q-13 -32 -13 -60q0 -18 5 -35q14 -47 67 -62q32 -9 59 -9q34 0 62 15q48 26 63 78q6 21 6 42q-1 29 -11 55 q-18 48 -65 70q-6 -4 -13 -1zM166 760q4 4 10 4q78 0 124 -46q47 -48 47 -113q0 -60 -42 -105q-43 -46 -121 -46q-75 0 -114 49q-30 37 -30 90q0 8 1 16q4 55 38 100t87 51zM618 353q4 3 9 3q3 0 6 -1q65 -25 91 -86q15 -36 15 -72q0 -25 -7 -50q-18 -65 -76 -97 q-33 -18 -75 -18q-32 0 -70 11q-68 19 -88 81q-7 21 -7 43q0 34 16 73q24 58 75 93q36 25 76 25q17 0 35 -5z"/>
<glyph glyph-name="ampersand" horiz-adv-x="713" unicode="&amp;" d="M282 476q64 59 89 95q25 37 25 73q0 19 -7 36q-11 26 -35 38q-20 10 -42 11q-5 0 -11 -1q-29 -2 -50 -20t-26 -46q-2 -11 -2 -22q0 -56 43 -136q7 -13 16 -28zM509 210q82 -89 99 -157q1 -5 -2 -11t-9 -8q-5 -2 -11 2q-6 3 -8 9q-14 59 -85 138q-50 -78 -113 -119 q-50 -33 -122 -33q-14 0 -30 1q-87 7 -131 76q-17 27 -17 80q0 26 6 52t23 50q16 26 29 44t40 44l38 39l43 39l-20 34q-46 87 -46 152q0 14 2 26q7 38 36 62t67 28q7 1 14 1q30 0 58 -14q34 -17 47 -55q9 -23 9 -46q0 -43 -30 -89q-27 -41 -98 -105q30 -46 68 -90 q16 -20 62 -67l59 -60l10 17q15 26 45 73t43 70q7 13 20 6q8 -5 8 -12q0 -4 -2 -8q-13 -25 -45 -73q-29 -45 -43 -70zM276 430l-64 -58q-22 -22 -50 -55t-40 -65t-12 -64q0 -44 13 -64q36 -56 107 -62q13 -1 25 -1q65 -1 113 31q56 38 104 114l-65 66q-49 50 -65 68 q-36 45 -66 90z"/>
<glyph glyph-name="quotesingle" horiz-adv-x="222" unicode="&apos;" d="M119 761q-1 -39 1 -116t2 -116q0 -15 -15 -15t-15 15q0 39 -2 116t-1 116q0 15 15 15t15 -15z"/>
<glyph glyph-name="parenleft" horiz-adv-x="332" unicode="(" d="M218 763q-60 -60 -108 -186q-41 -109 -41 -224q-1 -31 3 -63q14 -148 94 -275q10 -16 34 -41t28 -31q5 -6 5 -11q-1 -6 -7 -10q-5 -4 -10 -5q-6 0 -10 6q-1 1 -28 30t-38 46q-82 133 -98 287q-3 34 -3 68q0 119 43 233q50 133 114 198q5 5 11 5q7 0 11 -6q10 -10 0 -21z "/>
<glyph glyph-name="parenright" horiz-adv-x="323" unicode=")" d="M78 792q42 -23 74 -99q14 -37 35 -115q36 -132 36 -254q0 -184 -81 -345q-8 -17 -33 -58q-22 -35 -30 -55q-4 -10 -12 -10q-3 0 -8 2q-10 4 -10 12q0 3 2 8q10 23 32 59q25 40 33 56q77 154 77 332q0 118 -34 245q-21 76 -35 111q-27 67 -60 85q-13 7 -6 20q5 8 12 8 q3 0 8 -2z"/>
<glyph glyph-name="asterisk" horiz-adv-x="494" unicode="*" d="M172 541l-40 15l-41 17q-15 6 -37 13t-42 10q-6 0 -10 6q-3 4 -2 9q0 9 6 13t12 2q20 -4 44 -12l42 -14l44 -17l40 -16v83t1 88q0 15 15 15t15 -15q-1 -30 -1 -88v-84q104 49 158 59q7 1 12 -3q6 -4 6 -12q0 -5 -2 -9q-4 -5 -10 -6q-51 -9 -154 -58l42 -53q33 -44 58 -68 q10 -12 0 -22q-5 -5 -11 -5q-5 0 -11 5q-23 24 -60 72t-47 60q-11 -14 -37 -51q-33 -48 -55 -72q-10 -11 -21 -1t-1 21q18 21 53 70z"/>
<glyph glyph-name="plus" horiz-adv-x="661" unicode="+" d="M70 355h114h114q-4 195 -4 224q0 15 15 15t15 -15q0 -29 4 -224q123 -2 219 -8q6 0 10 -5t4 -11t-5 -10t-11 -4q-95 6 -217 8q1 -39 1 -71q-1 -8 1 -41q1 -16 1 -31q-1 -14 -1 -26q-2 -24 -5 -43q-2 -5 -7 -9q-4 -2 -7 -3q-2 1 -4 1q-5 2 -9 6q-4 5 -3 11q5 19 5 39 q0 7 1 15q0 15 -1 37q-1 32 -1 44q0 32 -1 71h-114h-114q-15 0 -15 15t15 15z"/>
<glyph glyph-name="comma" horiz-adv-x="241" unicode="," d="M140 127q-10 -31 -25 -104q-15 -72 -28 -106q-1 -7 -7 -9q-3 -1 -7 -1q-3 0 -5 1q-6 2 -8 8l-2 6q0 3 1 5q13 35 27 102q17 80 26 108q2 7 8 9q3 1 6 1t5 -1q7 -2 9 -8q1 -3 1 -6q0 -2 -1 -5z"/>
<glyph glyph-name="hyphen" horiz-adv-x="322" unicode="-" d="M29 306h178q15 0 15 -15t-15 -15h-178q-15 0 -15 15t15 15z"/>
<glyph glyph-name="period" horiz-adv-x="229" unicode="." d="M129 61q0 -15 -15 -15t-15 15t15 15t15 -15z"/>
<glyph glyph-name="slash" horiz-adv-x="461" unicode="/" d="M1 40q26 74 78 179q9 20 27 55l32 64l26 54q7 14 29 62l31 66l27 60l30 66l25 61l26 66q2 7 8 9q3 1 6 1t5 -1q7 -2 9 -8q1 -3 1 -6t-1 -5l-26 -67l-26 -60q-10 -26 -30 -68l-27 -60l-31 -68l-28 -60l-26 -55l-33 -65l-27 -54q-51 -104 -77 -176q-1 -6 -7 -8q-3 -1 -7 -2 q-3 0 -5 1q-6 1 -8 7q-1 3 -2 7q0 2 1 5z"/>
<glyph glyph-name="zero" horiz-adv-x="563" unicode="0" d="M70 517q19 82 59 144q62 94 145 94h12q62 -5 102 -55q44 -56 62 -142q14 -70 14 -132v-30q-4 -76 -21 -152q-9 -40 -27 -78t-44 -72t-65 -52q-34 -16 -73 -16h-12q-64 5 -104 49q-52 57 -66 209q-5 51 -5 96q0 68 11 125q2 9 12 12zM84 472q-6 -47 -6 -98q0 -42 4 -87 q13 -142 58 -192q32 -35 84 -39h12q31 0 58 13q33 17 56 45t39 62t24 74q16 74 20 148q1 15 1 29q0 61 -14 125q-16 80 -56 130q-32 39 -80 43h-10q-68 0 -120 -80q-46 -71 -60 -161q-2 -9 -10 -12z"/>
<glyph glyph-name="one" horiz-adv-x="399" unicode="1" d="M123 612q26 18 66 62t51 55l1 2q3 4 4 5q8 10 17 10q4 0 8 -2q6 -3 10 -9q2 -4 3 -9q2 -7 4 -20q2 -19 3 -53q1 -20 1 -88q-1 -53 1 -159t2 -159q0 -16 -2 -60q-1 -26 0 -48v-25l7 -60q-1 -4 -3 -8q-4 -4 -9 -6q-2 0 -4 -1q-4 1 -7 3q-5 4 -7 9q-5 29 -7 61q-1 16 0 34 v42q2 46 2 59q0 53 -2 159t-1 159q0 67 -1 87q-1 32 -3 51v1q-12 -12 -34 -37t-42 -45t-40 -34q-12 -9 -21 3q-4 5 -4 10q0 6 7 11z"/>
<glyph glyph-name="two" horiz-adv-x="544" unicode="2" d="M64 604q14 46 41 80t59 48q32 16 68 21q12 2 24 2q23 0 45 -7q73 -16 115 -74q30 -40 29 -91q0 -21 -5 -44q-18 -71 -101 -188q-31 -43 -132 -169q-5 -6 -30 -33l-51 -54l-48 -50v-1h9q208 4 316 4q15 0 15 -15t-15 -15q-108 0 -316 -4h-23q-8 0 -13 1q-4 1 -7 1 q-7 2 -10 7q-2 3 -2 7t-1 5l1 2q0 1 1 2q0 1 1 2q0 1 1 1l1 2l5 5l15 16l49 51l50 54q24 25 28 30q102 127 131 169q81 112 96 178q5 19 5 37q0 40 -25 73q-35 48 -96 62q-21 5 -41 5q-41 0 -79 -20q-57 -31 -82 -110q-2 -5 -8 -8t-10 -1q-6 1 -9 7t-1 12z"/>
<glyph glyph-name="three" horiz-adv-x="560" unicode="3" d="M83 666q28 44 75 72t97 33q9 1 17 1q45 0 82 -23q43 -27 63 -86q11 -32 11 -64q0 -24 -6 -49q-15 -58 -58 -96q-23 -21 -50 -33q12 -1 17 -3q68 -22 101 -80q28 -52 28 -116v-16q-4 -80 -52 -126t-118 -53q-11 -1 -22 -1q-56 0 -109 26q-64 31 -99 93q-2 5 -2 8q0 7 8 12 q13 7 20 -6q30 -53 86 -80q48 -23 97 -23q9 0 18 1q60 6 100 44t43 107v12q0 56 -24 102q-28 50 -85 68q-2 1 -17 2q-13 2 -34 4q-15 1 -32 3l-10 1h-3h-1h-1h-1q-1 0 -1 1q-7 2 -10 9q-4 9 3 17q4 4 9 5q4 1 12 2q19 1 29 3q46 9 80 39q36 32 48 81q5 21 6 43q0 27 -9 53 q-17 49 -51 71q-29 18 -66 18q-7 0 -14 -1q-43 -4 -84 -29t-65 -62q-9 -12 -21 -4t-5 20z"/>
<glyph glyph-name="four" horiz-adv-x="575" unicode="4" d="M378 204q0 -93 -4 -167q0 -6 -5 -10t-11 -4t-10 5t-4 11q4 73 4 166q-75 2 -113 2h-20h-34h-40q-36 0 -57 2q-13 1 -20 2q-5 1 -8 2q-8 4 -11 11q-1 4 -1 7q0 9 8 17q4 2 5 4h1q29 37 61 91q6 9 23 39l44 80l47 83l68 121l24 40q5 8 9 13q1 2 3 4q2 3 5 5q7 5 14 5 q6 0 12 -4q8 -6 10 -17l2 -19v-27q0 -30 -1 -76q-2 -68 -2 -93q1 -41 1 -129v-134q49 -1 82 -1q15 0 15 -15t-15 -15q-33 0 -82 1zM86 239q20 -2 55 -2h41h34h19q38 0 113 -2v133t-1 129q0 26 2 91q1 43 1 74v27l-23 -38l-68 -120l-47 -85l-45 -80q-17 -29 -22 -39 q-31 -52 -59 -88z"/>
<glyph glyph-name="five" horiz-adv-x="575" unicode="5" d="M418 707q-48 0 -146 4t-147 4h-2v-10q0 -17 3 -47q0 -10 2 -28t2 -22q2 -27 2 -36q0 -57 -5 -103v-1h2q10 1 43 5q52 6 77 6q9 0 15 -1q111 -16 161 -79q47 -59 50 -174v-8q0 -78 -39 -122q-28 -33 -82 -52t-112 -20h-6q-58 0 -106 19q-51 20 -75 62q-2 5 -2 8q0 7 8 12 q13 7 20 -6q19 -32 62 -49q41 -16 92 -16h6q53 1 101 18t72 44q31 36 31 102v8q-3 104 -43 155q-43 54 -142 68q-5 1 -13 1q-23 0 -72 -6q-33 -4 -44 -5q-10 -1 -15 0h-7q-8 2 -12 8q-5 9 -2 20q1 3 2 5v2q5 44 5 99q0 7 -2 33q0 3 -2 21t-2 30q-3 33 -3 48v18q1 11 4 16 q6 9 16 9q3 0 6 -1q5 -1 6 -1q49 0 147 -4t146 -4q15 0 15 -15t-15 -15z"/>
<glyph glyph-name="six" horiz-adv-x="589" unicode="6" d="M329 729q-18 -12 -55 -67q-35 -50 -77 -123q-37 -65 -68 -125q72 53 145 53q8 0 15 -1q88 -8 147 -84q36 -46 48 -102q5 -22 5 -45q0 -35 -12 -71q-20 -59 -75 -99q-49 -35 -128 -35q-15 0 -32 1q-84 6 -138 53t-59 131v16q0 50 16 103q18 60 111 220q42 74 77 125 q41 59 62 74q5 4 10 4q5 1 11 -7q8 -12 -3 -21zM103 360q-10 -22 -14 -34q-14 -48 -14 -93v-16q3 -72 49 -111t120 -45q15 -1 29 -1q71 0 111 29q46 35 64 85q11 32 11 62q1 20 -3 38q-10 50 -43 90q-52 65 -127 72q-7 1 -14 1q-79 0 -156 -73q-5 -5 -13 -4z"/>
<glyph glyph-name="seven" horiz-adv-x="550" unicode="7" d="M77 739h28q53 0 134 -5q118 -8 159 -8q2 0 8 1q8 1 12 1h5q17 0 25 -12q2 -4 2 -8q0 -3 -1 -7q-1 -2 -2 -7l-9 -18q-9 -20 -26 -53l-46 -87q-95 -190 -217 -470q-4 -10 -12 -10q-3 0 -8 2q-14 6 -8 20q123 280 219 472l45 86l26 53l5 9h-3t-3 -1q-7 -1 -12 -1 q-46 0 -161 8q-79 5 -130 5h-28q-7 0 -11 4q-4 5 -5 11q0 6 4 10t10 5z"/>
<glyph glyph-name="eight" horiz-adv-x="586" unicode="8" d="M254 392q-16 3 -30 3q-52 -1 -92 -37q-50 -46 -61 -122q-2 -17 -2 -33q0 -30 8 -59q13 -44 50 -77t93 -42q23 -4 44 -4q62 -1 107 31q61 42 79 112q6 25 6 49q0 43 -20 85q-32 64 -115 92q-11 4 -51 9q-6 -8 -16 -7zM250 430q4 2 9 1l1 -1q72 6 114 48t47 97q1 8 1 16 q0 47 -30 83q-34 42 -101 47h-12q-53 0 -91 -33q-43 -37 -54 -92q-3 -15 -3 -29q1 -39 21 -73q28 -46 94 -66zM334 417q47 -15 81 -45t50 -64q17 -34 21 -74q1 -11 1 -23q0 -28 -8 -54q-21 -81 -91 -129q-54 -37 -124 -37q-23 0 -48 4q-66 10 -110 50q-44 41 -58 91 q-10 34 -9 70q0 17 2 35q9 65 48 115t98 65q-51 29 -71 78q-14 33 -14 68q0 17 3 34q12 66 64 111q47 40 110 40q7 0 14 -1q81 -7 123 -59q36 -45 36 -101q0 -9 -1 -19q-5 -50 -35 -92t-82 -63z"/>
<glyph glyph-name="nine" horiz-adv-x="546" unicode="9" d="M429 451q-14 -53 -37 -108q-22 -55 -56 -115t-54 -94l-60 -95q-5 -8 -12 -8q-4 0 -9 3q-13 8 -5 21l70 112q26 41 62 111t56 128q-38 -28 -86 -40q-36 -9 -72 -9q-11 0 -22 1q-68 7 -112 50q-43 40 -43 111v6q2 102 72 178q36 40 91 54q27 7 51 7q27 0 52 -8 q54 -13 91 -52q36 -40 40 -99q1 -14 1 -28q0 -55 -15 -115q1 -6 -3 -11zM402 464q15 61 15 115q0 12 -1 24q-3 49 -33 81t-75 43q-22 6 -45 6q-22 1 -44 -5q-46 -12 -76 -45q-64 -70 -64 -161q1 -60 35 -94q36 -34 93 -40q11 -1 22 -1q43 1 87 17q54 20 86 60z"/>
<glyph glyph-name="colon" horiz-adv-x="246" unicode=":" d="M136 63q0 -15 -15 -15t-15 15t15 15t15 -15zM146 468q0 -15 -15 -15t-15 15t15 15t15 -15z"/>
<glyph glyph-name="semicolon" horiz-adv-x="246" unicode=";" d="M140 468q0 -15 -15 -15t-15 15t15 15t15 -15zM96 -81q-5 -10 -13 -10q-3 1 -7 3q-9 4 -10 12q0 3 2 7q38 83 48 192q2 7 6 11q4 3 8 3h2q6 -1 11 -5q3 -4 3 -9q0 -95 -50 -204z"/>
<glyph glyph-name="less" horiz-adv-x="665" unicode="&lt;" d="M558 550q-119 -68 -324 -159q-14 -6 -73 -26l-22 -8l11 -5q57 -25 63 -28q213 -109 321 -188q12 -9 3 -21q-5 -7 -11 -7q-5 0 -10 4q-106 77 -317 186q-4 2 -61 27q-19 8 -29 13q-6 4 -10 7q-3 2 -5 5q-3 4 -3 9q0 3 1 5q1 5 5 8q1 1 3 2l4 2l12 5l36 13q58 19 70 25 q204 89 320 157q5 3 9 3q7 -1 11 -9q3 -5 3 -8q0 -7 -7 -12z"/>
<glyph glyph-name="equal" horiz-adv-x="677" unicode="=" d="M96 251q62 5 130 7q29 1 63 1q45 0 99 -1q94 -2 129 -2q15 0 15 -15t-15 -15q-37 0 -130 2q-62 1 -112 1h-47q-66 -1 -128 -8h-3q-5 0 -9 3q-6 5 -5 13q0 5 3 9q4 4 10 5zM101 447q28 7 65 9q26 2 48 1h16q27 -1 70 -3t60 -3q18 -1 35 -1t32 1h25q20 -1 44 -1 q38 -2 68 -5q6 -1 10 -6q3 -4 3 -9q0 -7 -6 -12q-4 -3 -9 -3h-2q-30 5 -66 6q-18 1 -34 1t-32 -1q-15 -1 -32 -1t-36 1l-62 3q-42 2 -68 3h-18q-18 0 -42 -1q-34 -2 -63 -9q-6 -1 -11 3q-7 5 -7 13q1 4 3 7q4 5 9 7z"/>
<glyph glyph-name="greater" horiz-adv-x="680" unicode="&gt;" d="M95 591q182 -78 371 -171q22 -10 61 -32l32 -18q7 -5 11 -7q2 -1 4 -3t3 -4q3 -4 3 -9q0 -8 -10 -18q-6 -5 -15 -11q-14 -10 -39 -23q-16 -9 -40 -21l-26 -13l-326 -177q-5 -2 -8 -2q-7 0 -12 8q-7 13 6 20l326 177l26 13t39 21q24 13 38 22l3 2q-11 7 -29 17l-61 32 q-187 91 -369 169q-10 4 -10 12q0 3 2 8q4 10 12 10q4 0 8 -2z"/>
<glyph glyph-name="question" horiz-adv-x="494" unicode="?" d="M232 47q0 -15 -15 -15t-15 15t15 15t15 -15zM21 591l5 17q6 18 8 22l7 20q6 15 10 22l11 18q6 12 14 20t16 15q38 31 90 39q19 3 36 4q31 0 60 -10q49 -15 81 -52q35 -41 35 -96q0 -49 -62 -125l-45 -51q-34 -39 -46 -56q-32 -48 -41 -120q-1 -6 -6 -10q-4 -3 -9 -3h-2 q-6 1 -10 6t-3 11q11 78 47 132q12 18 48 60l44 50q55 68 55 105q0 44 -28 78q-26 30 -67 43q-23 7 -49 7q-16 -1 -33 -3q-44 -8 -77 -33q-6 -4 -10 -9t-8 -12l-8 -11q-4 -5 -8 -14t-6 -13t-6 -16q-4 -10 -4 -14q-2 -4 -6 -16l-5 -15q-1 -7 -7 -9t-12 0t-8 8l-2 6q0 2 1 5z "/>
<glyph glyph-name="at" horiz-adv-x="846" unicode="@" d="M499 487v11q0 42 -20 57q-13 9 -32 9q-13 0 -30 -4q-39 -10 -79 -38t-61 -55q-37 -55 -45 -101q-4 -20 -3 -36q1 -22 7 -38q12 -28 35 -46q23 -16 53 -18q4 0 9 -1q25 0 53 13q32 15 57 47v7q0 48 25 116q12 31 31 72v5zM567 557q-7 -17 -34 -74q-25 -51 -37 -84 q-24 -63 -23 -106q4 -7 1 -14q1 -18 8 -32q4 -13 14 -19t28 -9q12 -3 24 -3q65 0 113 81q25 41 39 89t16 87v8q0 81 -77 172q-42 49 -91 75q-50 26 -96 30h-14q-40 0 -81 -12q-70 -21 -132 -78t-102 -137q-28 -57 -41 -127q-7 -38 -7 -72q0 -29 5 -54q10 -58 60 -106 q49 -49 122 -81q70 -31 144 -39q23 -3 45 -3q45 0 81 12q75 25 131 97q9 12 21 3t3 -21q-62 -80 -145 -107q-44 -13 -95 -13q-22 0 -45 2q-77 9 -152 42q-79 35 -133 88q-55 53 -67 120q-5 27 -5 57q0 39 8 81q14 76 44 135q43 84 109 145t143 85q45 13 89 13q10 0 18 -1 q52 -3 106 -32t99 -82q85 -99 85 -192v-10q-2 -42 -18 -94q-15 -52 -41 -95q-58 -96 -139 -96q-15 0 -30 3q-24 5 -39 15t-25 31q-3 7 -5 14q-43 -45 -99 -51q-10 -1 -20 -1q-43 0 -76 24q-34 23 -48 61q-8 21 -8 47q0 19 5 43q11 54 50 111q21 35 67 65t90 41q20 5 36 5 q29 0 50 -15t29 -43q9 19 14 33q2 5 8 7q5 2 11 1q6 -2 8 -8t1 -12z"/>
<glyph glyph-name="A" horiz-adv-x="708" unicode="A" d="M13 106q11 24 29 58l24 44q62 125 158 363q11 27 40 88q18 37 27 54q7 11 12 18q3 4 6 7q5 5 12 6h2q6 0 11 -4q4 -3 7 -7q5 -6 11 -17q9 -18 22 -49l20 -49q11 -30 13 -34q23 -53 55 -141l51 -142l13 -31q7 -4 7 -13v-3l28 -65q31 -70 46 -114q1 -3 1 -5t-2 -6 q-2 -6 -8 -8t-12 0t-7 9q-14 42 -45 112l-29 65h-116q-98 0 -122 -1q-14 -1 -50 -4q-35 -3 -51 -3t-53 2l-21 -42q-6 -12 -24 -44t-28 -56q-10 -22 -14 -44q-2 -6 -7 -10q-4 -2 -7 -2h-4q-6 2 -10 7q-3 4 -2 8q0 15 17 53zM126 265q21 -1 34 -1h12q14 0 46 4q32 2 47 3 q31 1 121 1h106l-7 19l-51 142q-31 86 -55 139q-1 4 -13 34l-19 49q-13 30 -22 46l-2 6l-5 -9q-11 -19 -27 -52q-27 -56 -39 -87q-76 -189 -126 -294z"/>
<glyph glyph-name="B" horiz-adv-x="627" unicode="B" d="M97 755q25 4 59 4q26 -1 58 -3q72 -6 131 -25q71 -23 113 -67q41 -42 40 -105v-6q-2 -33 -22 -65t-47 -50q-34 -22 -82 -34q44 -7 76 -21q88 -39 102 -128q3 -19 3 -35q0 -36 -14 -60q-50 -83 -182 -106q-21 -4 -43 -6t-47 -2t-41 -1h-44h-36q-6 0 -10 4q-4 -2 -8 -2 q-15 0 -15 15q0 56 2 169t1 169l-14 339q0 5 3 9q4 4 11 5q3 2 6 2zM198 418q48 2 78 5t70 13q39 10 67 28q21 14 37 40q18 28 18 53q0 101 -132 146q-79 26 -167 26q-30 0 -61 -3q13 -131 13 -313q3 2 6 2q11 1 24 1q16 2 34 2h13zM153 386q-18 -2 -32 -7q1 -49 -1 -151 t-2 -153h3h37h43q15 1 39 1t46 2q21 2 41 6q118 20 161 92q10 16 10 43q0 14 -3 32q-11 72 -84 104q-50 22 -150 29q-49 4 -61 4h-22t-25 -2z"/>
<glyph glyph-name="C" horiz-adv-x="759" unicode="C" d="M623 636q-22 54 -95 80q-49 18 -100 18q-16 0 -32 -2q-44 -4 -124 -43q-64 -31 -110 -87t-66 -124q-16 -58 -15 -117v-19q3 -69 37 -132t95 -104q63 -42 199 -44q22 -1 43 -1q10 1 20 1q30 0 56 4t52 14q26 11 52 29q12 9 21 -3q4 -5 4 -10q0 -6 -7 -11q-29 -21 -59 -33 t-58 -16t-60 -5h-21l-43 1q-146 3 -215 50q-55 37 -91 92t-48 115q-8 38 -8 78q0 23 3 47q7 64 33 121t70 105q45 48 104 77q84 40 132 45q18 2 35 2q57 0 112 -20q84 -31 112 -96q6 -14 -8 -20t-20 8z"/>
<glyph glyph-name="D" horiz-adv-x="801" unicode="D" d="M96 752q37 5 78 5q93 0 201 -26q173 -41 250 -123q45 -48 66 -154q11 -53 11 -96q0 -41 -10 -72q-27 -94 -127 -165q-23 -17 -51 -29t-50 -22q-22 -8 -60 -14t-54 -10t-60 -4q-44 -2 -55 -2h-59h-53q-8 0 -12 7q-4 -3 -9 -3q-15 0 -15 15q0 47 2 183q1 91 1 155v57 q0 14 -7 116q-4 59 -4 102q0 31 2 53q1 4 3 7q-1 1 -1 3q-1 6 3 11t10 6zM111 721q-3 -23 -3 -54q0 -40 4 -94q8 -97 8 -119v-56q0 -64 -1 -154q-2 -136 -2 -175q3 1 6 1h47h52q12 0 48 1t52 3q14 2 46 6t50 8l44 14q26 8 46 19t39 24q92 65 117 149q8 27 8 63q0 40 -10 91 q-19 98 -59 140q-70 75 -235 114q-103 24 -193 24q-33 0 -64 -3v-2z"/>
<glyph glyph-name="E" horiz-adv-x="654" unicode="E" d="M119 727q52 15 155 15q23 0 48 -1q126 -4 220 -20q6 -1 10 -6q3 -4 2 -9q0 -8 -6 -12q-5 -4 -12 -3q-88 16 -215 20q-25 1 -47 1q-106 0 -154 -16v-36v-50v-48q0 -42 -1 -62l-6 -84q47 8 110 8h21q76 -2 142 -8t125 -15q6 -1 10 -6t3 -11t-6 -10t-11 -3q-61 10 -127 16 t-141 7h-13q-66 0 -114 -9q-4 -80 -4 -153q0 -8 -2 -40t-3 -51q-1 -16 -1 -28t1 -22t3 -16q0 -2 1 -3q4 -2 14 -4q16 -3 43 -4q47 -4 126 -4q27 -1 58 -1q14 1 30 1h86t46 1q15 0 15 -15t-15 -15q-8 -1 -46 -1h-86q-16 0 -30 -1q-30 0 -58 1q-80 0 -128 4q-29 2 -46 5 q-22 4 -30 11q-7 6 -10 18q-2 8 -3 21q-1 10 -1 23t1 30q1 19 3 51t2 39q0 121 11 270q2 20 2 55q0 23 -1 52v34q0 48 2 76q2 7 6 11t10 3q7 -1 11 -6z"/>
<glyph glyph-name="F" horiz-adv-x="593" unicode="F" d="M102 745q54 -7 116 -7h21q54 0 120 2q79 2 119 3q15 0 15 -15t-15 -15q-38 0 -112 -2t-136 -2t-115 4q0 -105 4 -294q19 -2 46 -2q18 0 39 1q55 1 84 1h23q9 0 59 -3t78 -3q15 0 15 -15t-15 -15q-26 0 -78 3t-61 3h-22q-28 0 -82 -1q-21 -1 -39 -1q-27 0 -47 2 q4 -217 4 -327q0 -15 -15 -15t-15 15q0 110 -4 333q-5 4 -5 11q0 6 5 11q-4 196 -4 305q0 2 1 4q-1 3 -1 6q1 6 5 10q4 3 9 3h3z"/>
<glyph glyph-name="G" horiz-adv-x="782" unicode="G" d="M634 657q-4 25 -39 43q-34 17 -89 25q-42 5 -81 5h-19q-47 -2 -72 -9q-53 -17 -101 -53q-47 -36 -81 -84t-56 -104q-21 -56 -21 -111q0 -58 21 -114q20 -50 58 -91t86 -67t104 -39q44 -11 89 -11q10 0 21 1q56 3 106 22q4 2 18 7t23 8q24 9 32 17q1 2 3 8q2 9 4 23 q3 25 5 67q1 28 2 70t1 49q0 2 2 12q1 11 2 18q1 11 1 17v1q-6 1 -16 1q-20 0 -56 -1q-17 -1 -40 -3l-38 -2q-15 -1 -21 -1q-15 0 -15 15t15 15q6 0 20 1l38 2l39 3q37 1 58 1q14 0 22 -2q5 -1 9 -2q6 -2 10 -7q3 -4 4 -11q1 -4 1 -10q0 -8 -1 -20q-1 -7 -3 -19 q-1 -9 -1 -10q0 -6 -1 -48t-2 -71q-2 -43 -5 -69q-2 -16 -5 -27q-4 -14 -10 -20q-13 -13 -43 -25q-8 -3 -22 -8q-15 -5 -20 -7q-54 -20 -114 -24q-12 -1 -23 -1q-47 -1 -95 11q-58 14 -112 43q-52 29 -94 73t-64 99q-23 61 -23 125q0 62 23 122q24 62 60 112q36 52 88 91 t110 56q28 9 79 11h18q42 0 87 -6q60 -8 98 -27q48 -25 56 -64q2 -5 -2 -11t-10 -7t-12 3t-6 9z"/>
<glyph glyph-name="H" horiz-adv-x="712" unicode="H" d="M608 740q-4 -23 -4 -63q0 -27 2 -62q6 -119 6 -132q0 -73 -6 -221t-6 -222q0 -15 -15 -15t-15 15q0 68 5 196l6 153q-27 0 -236 -5q-62 -1 -113 -1q-67 0 -113 2q1 -34 1 -63q0 -20 -2 -70t-2 -72v-30q0 -70 8 -103q2 -5 -1 -11t-9 -8t-12 2q-6 3 -6 9q-10 39 -10 115v26 q0 22 2 72t2 70q0 39 -5 200q-2 63 -2 113t2 88q0 6 5 10t11 4t10 -5t4 -11q-2 -38 -2 -87q0 -50 2 -111q-1 -14 1 -51t2 -57q44 -3 110 -3q52 0 117 2q209 5 236 5q1 34 1 64q0 12 -6 131q-2 36 -2 64q0 42 4 66q1 6 6 10q4 3 9 3h2q6 -1 10 -6t3 -11z"/>
<glyph glyph-name="I" horiz-adv-x="226" unicode="I" d="M122 729q0 -35 4 -199q2 -76 1 -124q0 -55 -2 -74l-3 -67q-3 -47 -4 -74q-1 -18 -1 -41q1 -12 1 -24q0 -38 4 -70q1 -6 -3 -11t-10 -6h-2q-5 0 -9 3q-5 4 -6 10q-4 33 -4 73q0 13 -1 25q0 24 1 42q1 27 4 74l3 68q2 18 2 73q1 48 -1 124q-4 163 -4 198q0 15 15 15t15 -15 z"/>
<glyph glyph-name="J" horiz-adv-x="470" unicode="J" d="M356 734q0 -34 -2 -94t-1 -109q0 -49 3 -93q1 -14 6 -68t6 -89q2 -39 2 -68v-19q-2 -44 -12 -65q-16 -35 -50 -61t-76 -39q-28 -10 -60 -10q-11 -1 -22 1q-44 4 -76 28q-10 6 -20 18t-14 20q-5 8 -13 22l-10 20q-2 5 -2 8q0 7 8 12q13 7 20 -6q3 -6 11 -20l12 -20 q2 -8 10 -16t16 -14q32 -23 74 -23q27 0 58 9q36 11 64 33t42 50q8 16 10 55v24q0 26 -1 59q-2 34 -7 89t-6 68q-3 44 -3 94q-1 50 1 110q2 61 2 94q0 15 15 15q7 -1 11 -5t4 -10z"/>
<glyph glyph-name="K" horiz-adv-x="625" unicode="K" d="M484 743q-43 -36 -84 -75l-106 -100l-81 -77l-45 -42l-27 -25l-2 -2l4 -3l32 -27l34 -27q17 -14 20 -17q33 -31 147 -131q100 -88 145 -137q5 -5 5 -10q0 -6 -6 -11q-11 -10 -21 1q-51 55 -142 135q-138 121 -148 131q-3 3 -19 16l-34 27l-32 27l-1 1q0 -42 -2 -92 q-1 -50 -3 -83t-6 -94t-5 -86q0 -6 -5 -10t-11 -4t-10 5t-4 11q1 26 5 88t6 88t4 88q2 45 1 71v18q-1 26 -2 88q-1 25 -7 81t-6 86q0 8 -1 17q0 27 3 67q1 6 6 10t11 3t10 -6t3 -11q-3 -39 -3 -63q1 -9 1 -17q2 -27 6 -82q6 -55 7 -83q1 -20 1 -40l25 24l46 42l81 77 l106 102l84 73q6 5 11 5q7 0 11 -6q10 -12 -2 -21z"/>
<glyph glyph-name="L" horiz-adv-x="548" unicode="L" d="M108 736q-3 -38 -3 -87q0 -67 6 -155q14 -192 14 -245q1 -7 -1 -41t-3 -54q-1 -16 -1 -30t1 -24q1 -11 2 -18v-3q2 -1 5 -1q11 -2 32 -3q34 -1 100 -2q165 0 175 -1q6 -1 10 -6q3 -4 3 -9q0 -7 -6 -12q-4 -3 -9 -3h-2q-8 1 -171 1q-66 1 -101 2q-23 1 -35 3q-8 1 -13 3 q-9 3 -13 9q-3 6 -5 18q-1 8 -2 21q-1 11 -1 25t1 31q1 19 3 53t1 41q0 48 -14 243q-6 89 -6 157q0 50 3 89q2 7 6 11q4 3 8 3h2q6 -2 11 -6q4 -4 3 -10z"/>
<glyph glyph-name="M" horiz-adv-x="878" unicode="M" d="M73 57q0 74 14 274q8 114 8 182q0 93 -3 130q0 4 -5 52l-3 26v9v3v4l2 4q5 7 12 7q9 1 18 -7q5 -5 10 -12q10 -12 23 -34q17 -28 32 -58q18 -35 45 -101q29 -72 43 -100l47 -96l49 -97l55 -117l11 -24l13 37q26 81 36 105q109 256 178 396l43 88l11 24l3 6l1 2l1 1v1l1 1 q1 1 1 2q4 4 10 4q3 0 7 -1q5 -2 7 -7q1 -1 1 -3t1 -3q1 -3 2 -7q1 -7 2 -21q3 -27 5 -67q7 -97 7 -147q1 -28 1 -85v-85q0 -42 8 -132t8 -135q0 -15 -15 -15t-15 15q0 42 -8 132t-8 135v85t-1 85q0 49 -7 145q-1 24 -3 44l-37 -76q-56 -117 -176 -394q-10 -24 -36 -102 l-16 -49q-4 -10 -6 -16q-1 -3 -3 -6q-1 -1 -2 -3q-3 -5 -9 -6t-12 3l-2 2q-1 1 -2 3l-3 4q-2 4 -6 11l-19 40l-55 118q-19 41 -48 97q-33 64 -48 96q-13 28 -43 101q-25 63 -43 98q-15 29 -32 57l-5 8q3 -35 4 -43q3 -38 3 -132q0 -70 -8 -184q-14 -199 -14 -272 q0 -15 -15 -15t-15 15z"/>
<glyph glyph-name="N" horiz-adv-x="768" unicode="N" d="M83 47q3 45 3 131q0 52 -1 119q-1 64 -1 115q0 86 3 138q5 83 5 147v1q-1 1 -1 5q-3 15 8 22q12 9 28 1q10 -5 23 -16q19 -19 46 -55q23 -32 68 -104q39 -62 116 -161q91 -117 120 -161l64 -93l39 -55l11 -15q1 7 2 22q2 27 3 68v48q1 28 1 46v25q4 85 10 177 q8 117 8 196q0 40 -2 70q0 6 4 11t10 5t11 -4t5 -10q2 -31 2 -71q0 -80 -8 -199q-6 -95 -10 -177v-25t-1 -45v-48q-1 -43 -3 -69q-1 -15 -2 -24q-1 -6 -2 -10q-1 -6 -4 -9q-9 -12 -22 -12q-5 0 -11 2q-2 1 -5 3q-2 0 -2 1t-1 2q-2 2 -5 6l-13 18l-39 56l-64 94 q-29 43 -120 159q-79 101 -118 163q-50 79 -66 102q-26 34 -43 51q-4 4 -7 6q0 -64 -5 -146q-3 -51 -3 -136q0 -51 1 -114q1 -67 1 -119q0 -87 -3 -134q0 -6 -5 -10t-11 -4t-10 5t-4 11z"/>
<glyph glyph-name="O" horiz-adv-x="849" unicode="O" d="M53 393q15 94 57 178t108 133q58 42 123 58q40 9 77 10q24 0 46 -4q58 -10 113 -41t93 -78t60 -111q19 -56 19 -116v-16q-5 -118 -71 -210t-167 -135q-67 -28 -135 -29h-4l-132 32q-68 33 -122 100q-76 97 -76 215q0 11 11 14zM74 349q9 -92 68 -167q48 -61 110 -91 q60 -29 121 -29h4q62 1 122 27q93 39 155 125t65 194v16q0 54 -17 105q-20 58 -56 101q-36 44 -84 72t-102 36q-20 3 -42 4q-35 0 -71 -9q-59 -14 -111 -53q-66 -49 -106 -138t-52 -184q-1 -5 -4 -9z"/>
<glyph glyph-name="P" horiz-adv-x="607" unicode="P" d="M78 747q14 3 31 4t27 1q5 0 14 1q8 -1 18 -1h27q41 0 73 -2t72 -13q38 -11 66 -27t54 -46q24 -31 37 -73q11 -34 11 -61q0 -37 -19 -63q-46 -65 -175 -84q-50 -7 -117 -7q-36 0 -78 2h-1q0 -37 -2 -86q-5 -182 -5 -232q0 -15 -15 -15t-15 15q0 50 5 233q2 90 2 152 q0 47 -1 78q1 12 -7 85q-5 52 -6 86q0 14 1 24q-9 4 -9 14q0 4 2 8q4 5 10 7zM119 408h2q40 -2 76 -2q65 0 113 7q116 17 155 72q13 18 13 46q0 23 -9 52q-14 44 -41 73q-27 28 -66 42t-77 19t-90 5q-77 0 -90 -1q-1 -11 -1 -25q0 -34 5 -84q7 -72 8 -87q2 -53 2 -117z"/>
<glyph glyph-name="Q" horiz-adv-x="900" unicode="Q" d="M788 64q-21 -4 -62 -4h-43q-3 0 -30 -2t-33 -1q-6 0 -30 -1q-25 -1 -35 -1q-10 -1 -32 -1h-20h-15q-14 0 -33 2q-19 0 -35 2t-34 4q-179 22 -270 121q-63 68 -63 195q-1 156 89 260t246 120q20 2 39 2q45 0 89 -12q62 -16 108 -50t80 -84t48 -106q10 -40 11 -83 q0 -18 -2 -37q-6 -62 -36 -122q-31 -62 -113 -131q-39 -33 -73 -51q39 1 142 6h53q43 0 48 4q6 2 12 -2q7 -4 6 -13q0 -5 -2 -9q-4 -6 -10 -6zM438 87q3 1 6 1q65 0 148 69q78 66 107 123q27 54 33 112q2 17 1 33q1 40 -9 76q-14 51 -45 96t-73 76t-98 47q-38 10 -78 10 q-19 0 -38 -2q-145 -17 -227 -110q-82 -95 -82 -240q0 -115 55 -175q84 -90 252 -112q24 -3 48 -4z"/>
<glyph glyph-name="R" horiz-adv-x="619" unicode="R" d="M277 388h-35h-43q-79 2 -83 2h-1q-4 -79 -4 -145q0 -102 9 -172q1 -6 -3 -11t-10 -6t-11 3t-6 10q-8 63 -8 164q0 79 5 181q3 84 5 120q1 27 2 71v31q0 66 -6 118q-1 6 3 10t11 6q4 0 7 -1q74 18 139 18q60 0 113 -15q66 -18 108 -63t49 -120q1 -12 1 -23q0 -82 -57 -126 q-53 -41 -153 -50q8 -14 28 -40t26 -34q121 -176 145 -266q2 -6 -1 -12t-9 -6q-2 0 -4 -1q-4 0 -8 2q-6 3 -6 9q-23 85 -141 256q-5 9 -19 26q-14 16 -25 32t-18 31v1zM117 420q3 0 83 -2h34q32 0 56 1q103 6 154 45q45 34 45 103q0 9 -1 20q-11 121 -135 156 q-48 14 -104 14q-61 0 -130 -17q4 -47 4 -116q0 -85 -6 -204z"/>
<glyph glyph-name="S" horiz-adv-x="571" unicode="S" d="M442 651q-20 47 -71 67q-32 12 -66 12q-21 0 -44 -5q-60 -12 -103 -53t-50 -102q-1 -8 -1 -16q0 -12 2 -22q3 -18 8 -30q5 -14 17 -27t23 -21t31 -20t32 -18l38 -18q7 -4 11 -6q90 -43 127 -83q51 -55 51 -136q0 -12 -1 -26q-5 -55 -46 -87t-99 -39q-20 -3 -40 -3 q-35 0 -69 8q-54 14 -87 45q-8 7 -16 19t-12 19l-11 23q-7 15 -8 17q-2 5 -2 9q0 8 8 12q14 6 20 -7q4 -5 10 -19t10 -20t9 -16q6 -9 12 -15q28 -25 76 -37q30 -8 61 -8l35 3q51 5 83 31t36 67q1 12 1 23q0 70 -43 117q-33 35 -118 76q-5 3 -15 7l-37 18q-12 6 -34 18 t-34 23q-12 10 -26 26t-20 32t-11 38q-2 13 -2 26q0 10 1 21q8 72 58 120q51 47 119 61q24 5 48 5q41 0 80 -15q61 -23 87 -82q2 -4 2 -8q0 -8 -10 -12q-14 -6 -20 8z"/>
<glyph glyph-name="T" horiz-adv-x="589" unicode="T" d="M-2 732q59 10 167 10q33 0 72 -1q55 -1 99 -1q89 0 136 5h2q5 0 9 -3q6 -5 6 -12q0 -5 -3 -9q-4 -5 -10 -6q-48 -6 -122 -6q-42 0 -92 2q0 -51 6 -147t7 -133q1 -19 1 -67t-1 -126q-3 -154 -3 -192q0 -15 -15 -15t-15 15q0 39 2 175q1 76 2 132q0 45 -1 78q-1 36 -7 132 t-6 148q-39 1 -73 1q-96 0 -157 -10q-6 -2 -11 2q-6 4 -6 13q1 5 3 9q4 5 10 6z"/>
<glyph glyph-name="U" horiz-adv-x="724" unicode="U" d="M108 727q-7 -42 -8 -87v-33q0 -35 1 -77q2 -64 2 -89q1 -23 -1 -70t-2 -83q0 -34 5 -67q4 -27 23 -62q26 -45 81 -75t120 -36q17 -2 34 -2q47 0 89 15q58 20 90 64q19 27 32 104q11 65 16 166q4 83 4 304q0 15 15 15t15 -15q0 -221 -4 -305q-5 -103 -16 -170 q-14 -84 -38 -117q-38 -51 -103 -73q-50 -17 -103 -18q-17 0 -34 2q-71 7 -132 40t-92 87q-22 39 -26 72t-6 71v19q0 29 2 65q2 48 1 69q0 23 -2 88q-1 43 -1 79v34q1 48 8 89q1 7 6 11q4 3 9 2h3q6 -1 10 -6t2 -11z"/>
<glyph glyph-name="V" horiz-adv-x="685" unicode="V" d="M29 751q16 -27 37 -89t25 -71q92 -225 143 -376l29 -88q11 -31 18 -48l2 -3l2 4q9 18 22 51l20 57q11 32 13 37l68 161l82 198l66 162q2 6 8 8t12 1q6 -2 8 -8q1 -3 1 -6q0 -2 -1 -5l-66 -163l-82 -198l-68 -162q-2 -4 -12 -35l-21 -57q-13 -35 -23 -55q-7 -12 -12 -19 q-9 -11 -20 -11h-2q-7 1 -12 7q-2 3 -4 7q-4 6 -8 17q-8 18 -19 50l-29 88q-52 151 -143 374q-6 16 -25 73t-35 85q-2 5 -2 8q0 7 8 12q5 2 8 2q7 0 12 -8z"/>
<glyph glyph-name="W" horiz-adv-x="1011" unicode="W" d="M33 751q15 -27 26 -59t23 -77l17 -60l25 -77l28 -90q8 -26 21 -74t21 -89q14 -71 21 -99l10 -36l8 25l20 71q15 60 37 123t55 150l45 120l15 49q11 34 20 58t19 34v2q1 3 2 5q6 17 22 14q5 -1 9 -5q1 -2 3 -4q1 -3 3 -7q3 -7 8 -20l17 -57q5 -16 12 -40l10 -38 q4 -14 5 -18q21 -57 37 -120q16 -64 36 -152t30 -121q9 -37 21 -77v-2l1 1q11 27 29 75l45 123q6 18 29 78t35 94q5 15 28 79t36 106q12 40 19 80q1 6 6 10t11 2q6 -1 10 -6q3 -4 3 -9q0 -18 -20 -85q-13 -42 -37 -108t-28 -79q-10 -33 -34 -94t-30 -78l-45 -123 q-18 -49 -29 -76q-7 -16 -11 -26q-3 -5 -5 -8l-2 -4q-4 -4 -9 -5q-3 -1 -5 -1q-5 0 -9 4q-2 1 -3 3q0 1 -1 2t-1 3q-1 3 -3 8q-4 11 -9 27l-22 78l-28 123q-22 87 -38 149t-35 119q-2 5 -6 20l-11 38l-11 40q-9 33 -15 51q-8 -15 -46 -122l-44 -120q-32 -87 -54 -149 t-39 -122l-19 -71q-8 -25 -12 -39q-3 -9 -5 -14q-2 -3 -3 -5l-2 -4q-4 -4 -10 -5q-7 -1 -14 4q-4 3 -7 7q-4 7 -8 18q-7 17 -15 49q-8 34 -22 101q-9 42 -20 87q-12 47 -20 73t-28 90t-25 78q-6 17 -18 61t-22 74t-24 55q-2 5 -2 8q0 7 8 12q5 2 8 2q7 0 12 -8z"/>
<glyph glyph-name="X" horiz-adv-x="669" unicode="X" d="M6 55q75 85 195 282q21 33 49 71q-87 127 -132 199q-8 13 -35 62q-21 39 -35 57q-9 12 3 21q5 4 10 4q6 0 11 -7q16 -22 38 -61q26 -48 34 -60q44 -71 125 -189l86 107q17 22 67 95q42 60 72 94q10 11 21 1t1 -21q-28 -32 -69 -91q-55 -79 -68 -96l-92 -115l67 -99 q28 -41 105 -130q76 -88 107 -132q4 -5 4 -10t-8 -11q-5 -4 -9 -4q-6 0 -11 7q-28 41 -106 130q-73 84 -106 134l-62 89q-23 -32 -41 -61q-127 -205 -199 -286q-10 -11 -21 -1q-6 5 -6 11q0 5 5 10z"/>
<glyph glyph-name="Y" horiz-adv-x="600" unicode="Y" d="M260 347q-4 -30 -4 -43t4 -44t4 -47q1 -28 2 -84t2 -83q0 -8 -4 -12t-10 -4t-12 4q-4 4 -4 10q-1 28 -2 84t-2 83q-1 12 -4 43q-4 37 -4 52q0 16 3 42q-2 3 -6 8l-15 24q-26 44 -27 47q-122 182 -184 306q-2 5 -2 9q1 8 9 12q4 2 8 2q7 0 11 -9q61 -121 182 -304 q3 -3 29 -48l10 -16l21 30l34 53q33 49 89 144t84 137q8 13 21 5q8 -5 8 -12q0 -4 -3 -9q-28 -42 -84 -137t-89 -144l-35 -53l-22 -33q-5 -6 -8 -10v-3z"/>
<glyph glyph-name="Z" horiz-adv-x="683" unicode="Z" d="M51 743h205q4 1 23 1h48t54 1q49 1 77 1q18 -1 27 -1q6 -1 10 -1q2 0 4 -1q4 -1 7 -4q8 -7 8 -20q0 -8 -4 -18q-6 -16 -21 -38q-23 -36 -43 -58q-154 -170 -286 -367l-68 -104q-20 -32 -30 -51l-5 -12q4 -1 10 -1q16 -2 43 -3h32q12 1 26 1h16q64 0 192 2t192 1 q15 0 15 -15t-15 -15q-64 1 -192 -1t-192 -2h-16t-27 -1h-31q-29 1 -46 3q-12 1 -19 3q-11 3 -16 9t-5 14l2 10q3 8 9 20q11 21 32 54l69 104q132 199 288 371q18 21 40 54q13 20 18 32q0 2 1 4q-9 0 -25 1q-28 0 -77 -1q-23 -1 -53 -1h-49t-23 -1h-205q-15 0 -15 15t15 15z "/>
<glyph glyph-name="bracketleft" horiz-adv-x="311" unicode="[" d="M197 731q-3 0 -58 -1q-21 0 -32 -1q-5 0 -8 -1q-1 -1 -1 -2q-2 -6 -4 -16q-3 -17 -4 -46q-2 -30 -2 -84q0 -162 16 -489q0 -9 1 -102q1 -41 1 -60q0 -12 1 -19q4 -3 9 -4q10 -2 26 -2q9 0 29 1t25 1q15 0 15 -15t-15 -15q-4 0 -23 -1t-31 -1q-20 0 -33 3q-20 4 -29 16 l-3 6v2v2v6q-1 7 -1 20q0 19 -1 60q-1 92 -1 100q-16 329 -16 491q0 55 2 86q1 30 5 49q2 12 4 20q4 11 10 17q4 4 13 6q5 1 13 1q12 1 34 1q53 1 54 1h2q5 0 9 -3q5 -4 6 -10t-3 -11t-10 -6zM106 -89q0 1 -1 1l-1 -1q1 1 2 0z"/>
<glyph glyph-name="backslash" horiz-adv-x="465" unicode="\" d="M27 763q62 -95 119 -215t117 -262q60 -141 100 -222q2 -5 2 -9q-1 -7 -9 -11q-4 -2 -8 -3q-7 0 -11 9q-43 85 -103 225q-60 141 -115 259q-56 118 -118 213q-3 5 -3 9q0 6 8 12q5 3 9 3q7 0 12 -8z"/>
<glyph glyph-name="bracketright" horiz-adv-x="336" unicode="]" d="M62 765l66 4q26 1 39 1h15q3 0 5 -1q5 0 9 -3t6 -7q0 -2 1 -5t2 -9q1 -10 3 -28q3 -30 7 -81q2 -39 7 -131q13 -259 13 -451q0 -2 1 -28v-25v-19q0 -25 -3 -41q-5 -25 -19 -32q-7 -4 -27 -7q-14 -1 -38 -2q-57 -4 -62 -5h-3q-4 1 -8 3q-6 4 -7 9t3 11t9 7q8 1 67 4l35 3 q12 2 16 3q3 4 4 12q3 13 3 36v19v24q-1 26 -1 28q0 190 -13 449q-5 93 -7 131q-4 51 -7 80q-1 17 -3 26h-7q-13 0 -38 -1q-67 -4 -68 -4q-15 0 -15 15t15 15z"/>
<glyph glyph-name="asciicircum" horiz-adv-x="630" unicode="^" d="M70 301q4 16 12 33t20 36l17 27q19 39 61 127t67 133l6 13q5 10 11 21l12 21q12 19 22 29q6 7 13 11q5 2 10 2q6 0 11 -3q13 -7 20 -27q6 -19 7 -21q171 -296 171 -400q0 -5 -2 -9q-3 -6 -9 -6q-5 -2 -11 1t-8 9q-47 182 -167 391q-2 4 -10 26q-1 5 -2 7q-1 -1 -2 -1 q-7 -8 -17 -25q-6 -9 -12 -20l-11 -21l-6 -12q-23 -45 -65 -133t-63 -127q-6 -12 -17 -30q-10 -18 -18 -32t-12 -28q0 -6 -6 -9q-4 -2 -8 -2h-4q-6 2 -9 8q-2 3 -2 6t1 5z"/>
<glyph glyph-name="underscore" horiz-adv-x="579" unicode="_" d="M-31 -53q82 0 247 9t248 9q15 0 15 -15t-15 -15q-82 0 -247 -9t-248 -9q-15 0 -15 15t15 15z"/>
<glyph glyph-name="grave" horiz-adv-x="257" unicode="`" d="M24 756q24 -18 45 -42t50 -64l35 -47q4 -5 4 -10q0 -6 -7 -11q-5 -4 -10 -4q-6 0 -11 7q-8 10 -36 48t-47 60t-41 39q-7 6 -7 12q1 6 5 10q5 6 11 6q4 0 9 -4z"/>
<glyph glyph-name="a" horiz-adv-x="520" unicode="a" d="M73 458l12 12q6 5 11 9q6 4 14 8l12 6q4 1 14 5t12 4t14 4t13 4q39 12 71 12q53 0 87 -33q41 -40 54 -136q3 -25 5 -51t2 -66q2 -40 2 -51q5 -94 22 -129q2 -5 2 -9q0 -7 -8 -11q-4 -2 -9 -3q-7 0 -11 9q-16 31 -22 88q-32 -46 -73 -70t-81 -26q-7 0 -13 -1q-32 -1 -62 9 q-36 12 -62 36q-29 26 -39 60q-4 12 -3 25q0 22 10 46q38 77 192 107q32 6 69 6q25 0 52 -3q-1 16 -3 30q-11 86 -45 118q-25 25 -68 25q-27 0 -61 -10q-3 -1 -8 -3q-21 -5 -31 -9t-24 -12t-23 -20t-21 -2t-3 22zM362 289q-27 3 -52 3q-34 0 -65 -6q-140 -27 -171 -91 q-8 -15 -8 -31q0 -9 3 -18q7 -25 30 -46q24 -21 57 -30q22 -6 46 -6q12 0 24 2q37 4 75 34t66 82v2q-1 13 -3 49t-2 56z"/>
<glyph glyph-name="b" horiz-adv-x="647" unicode="b" d="M125 766v-18q0 -29 -2 -77q-3 -67 -3 -92v-147q48 60 131 84q45 11 88 11q1 -1 3 -1q44 0 88 -23q42 -23 67 -65q40 -68 49 -140q2 -17 2 -33q0 -51 -19 -97q-26 -63 -83 -100q-58 -36 -142 -36q-94 0 -143 46q-19 18 -41 50v-96q0 -15 -15 -15t-15 15v286q-7 5 -7 13 q0 23 7 46v202q0 25 3 94q2 48 2 75v16q0 8 4 12q5 4 11 4t10 -4t5 -10zM120 372v-189l14 -23l16 -22q5 -8 14 -19t17 -19q41 -38 123 -38q75 0 125 32t72 85q16 38 16 84q1 17 -1 33q-8 66 -45 126q-30 52 -91 68q-28 7 -55 8q-33 0 -65 -11q-50 -14 -88 -45t-52 -70z"/>
<glyph glyph-name="c" horiz-adv-x="530" unicode="c" d="M403 431q-42 56 -127 58h-6q-89 0 -140 -61q-54 -62 -55 -151v-5q0 -54 19 -100q21 -48 67 -80t110 -32q47 0 78 6t53 26q11 10 21 -1q5 -5 5 -10q0 -6 -6 -11q-19 -18 -49 -28t-50 -10q-20 -2 -52 -2q-56 0 -101 22t-72 56q-26 36 -40 80q-13 42 -14 86q0 48 16 93 q16 43 44 78t72 55q42 19 95 19h5q100 -2 151 -70q4 -5 4 -10q0 -6 -7 -11q-12 -9 -21 3z"/>
<glyph glyph-name="d" horiz-adv-x="613" unicode="d" d="M493 797q-3 -36 -3 -54q0 -19 2 -55t1 -56q0 -96 10 -288l1 -11q1 -6 3 -13q1 -6 -2 -11q8 -161 8 -255q0 -15 -15 -15t-15 15q0 49 -2 105q-16 -31 -31 -49q-34 -40 -82 -60q-45 -20 -90 -20h-4q-47 1 -93 20t-80 52t-53 82q-14 38 -14 79q0 14 2 28q6 59 34 105 q27 47 65 73q38 27 85 37q27 6 54 6q18 0 38 -4q46 -8 88 -33q42 -26 70 -67q-7 135 -7 224q1 18 -1 52t-2 63t3 54q1 6 5 10q4 3 9 3h3q6 -2 10 -6t3 -11zM479 216q-2 41 -5 112q-14 54 -50 90t-78 51q-34 12 -72 12q-9 -1 -18 -1q-47 -4 -87 -25q-41 -21 -69 -65t-34 -103 q-1 -12 -1 -23q0 -36 12 -69q15 -43 45 -72t70 -45t82 -18h4q39 0 78 16q42 18 72 54q16 19 44 79q3 5 7 7z"/>
<glyph glyph-name="e" horiz-adv-x="564" unicode="e" d="M430 291q5 5 4 18q-1 17 -12 43q-22 52 -45 74q-37 36 -86 44q-17 3 -34 3q-31 -1 -59 -11q-44 -16 -79 -52q-35 -37 -45 -87q-3 -13 -4 -26q25 1 79 -1t83 -2h20t40 -2q26 -1 46 -1q42 -1 66 -1h22q3 1 4 1zM72 267q6 -49 39 -91t82 -68q41 -22 85 -28q13 -2 26 -1 q30 0 60 9q42 13 73 45q10 11 21 1t1 -21q-36 -39 -86 -54q-34 -10 -68 -10q-16 0 -31 2q-49 7 -94 30q-71 37 -111 104q-29 49 -29 103q0 20 4 41q12 57 52 101t92 61q33 12 68 12q20 0 40 -4q58 -10 101 -51q28 -27 52 -84q13 -31 15 -53v-6q0 -29 -19 -40q-3 -3 -9 -4h-9 q-8 -1 -23 -1q-24 0 -67 1q-20 0 -45 1q-24 2 -40 2h-20q-28 0 -82 2t-78 1z"/>
<glyph glyph-name="f" horiz-adv-x="358" unicode="f" d="M243 774q-4 0 -24 1h-23q-22 -2 -34 -13q-27 -24 -30 -82q-1 -12 -1 -31v-21q1 -38 1 -49l-2 -72q43 1 108 1q15 0 15 -15t-15 -15q-66 0 -108 -1q-1 -10 -1 -96v-105q1 -186 1 -202q0 -15 -15 -15t-15 15t-1 201v105q0 86 1 97q-42 -1 -79 -3q-6 0 -11 4t-5 10t4 11 t10 5q38 2 81 3q1 38 2 72q0 11 -1 48v22q0 20 1 33q4 70 40 102q20 18 52 21h26q19 -1 23 -1q15 0 15 -15t-15 -15z"/>
<glyph glyph-name="g" horiz-adv-x="608" unicode="g" d="M464 355q-12 72 -66 104q-39 23 -87 23q-18 0 -36 -3q-69 -11 -124 -61t-68 -128q-7 -38 -7 -67q0 -22 4 -38q8 -43 42 -73t83 -44q38 -11 78 -11q9 0 19 1q50 3 87 22q29 14 47 38t32 63q2 5 8 8l-1 9l-3 48t-4 58t-3 49q-1 1 -1 2zM499 488q-3 -26 -5 -54q-1 -16 0 -34 v-26q1 -33 2 -54l5 -62q3 -41 4 -58q4 -43 4 -92q0 -28 -1 -57q-5 -80 -27 -146q-25 -75 -119 -113q-56 -22 -109 -22q-28 0 -55 6q-78 19 -130 111q-7 13 6 20t20 -6q46 -80 110 -95q25 -6 50 -6q47 0 97 20q81 32 102 95q25 76 25 185v31q-28 -56 -75 -79q-43 -20 -99 -24 q-11 -1 -22 0q-44 0 -85 11q-55 15 -95 51t-52 89q-4 19 -4 44q0 32 7 73q15 88 77 144t140 69q19 3 38 3q38 0 74 -12q52 -18 83 -65q1 30 4 57q1 6 6 10t11 3t10 -6t3 -11z"/>
<glyph glyph-name="h" horiz-adv-x="561" unicode="h" d="M115 789q5 -30 5 -65v-29v-47q-2 -41 -2 -62q0 -20 4 -164q40 57 104 86q34 16 67 18q5 0 9 1l57 -13q33 -16 54 -51q26 -43 37 -99q12 -58 12 -98t-4 -108t-3 -95q0 -15 -15 -15t-15 15q-1 31 3 98t4 105t-10 90t-35 91q-23 39 -65 47q-11 2 -22 2q-31 0 -62 -15 q-40 -19 -72 -53t-43 -71q4 -177 4 -297q0 -15 -15 -15t-15 15q0 116 -3 282q-4 5 -3 11l2 8q-1 35 -3 110t-2 115v18q0 20 1 46q2 32 2 59q-1 7 -1 13l-5 64q1 5 3 9q4 5 10 6h2q5 -1 9 -3q5 -4 6 -9z"/>
<glyph glyph-name="i" horiz-adv-x="216" unicode="i" d="M111 693q0 -15 -15 -15t-15 15t15 15t15 -15zM111 492q3 -20 5 -42q1 -11 1 -24q-1 -13 -1 -29q-2 -31 -1 -39v-293q0 -15 -15 -15t-15 15v293q0 12 1 41q1 19 1 34q-1 9 -1 15l-5 39q0 5 2 9q3 6 9 6q2 0 4 1q4 0 8 -2q6 -3 7 -9z"/>
<glyph glyph-name="j" horiz-adv-x="224" unicode="j" d="M113 686q0 -15 -15 -15t-15 15t15 15t15 -15zM118 497q-2 -19 -2 -57t1 -74t3 -98t3 -99q1 -60 1 -106t-1 -80q-2 -42 -7 -70q-5 -32 -15 -46q-35 -53 -110 -53q-15 0 -15 15t15 15q59 0 86 39q6 9 10 35t6 67q1 33 1 79t-1 105q-1 34 -3 97t-3 99q-1 35 -1 75t2 61 q2 6 6 10q4 3 8 3h2q6 -2 11 -6q4 -4 3 -11z"/>
<glyph glyph-name="k" horiz-adv-x="505" unicode="k" d="M370 481q-26 -47 -93 -105t-126 -96h-1l-1 -1l-3 -2l-3 -1q9 -4 17 -10t20 -14q10 -8 13 -11q121 -90 208 -182q5 -5 5 -10q0 -6 -6 -11q-5 -5 -10 -5q-6 0 -11 6q-85 90 -204 178q-5 3 -15 11t-17 14q-7 4 -14 7q-1 0 -6 1h-1q-1 -96 -11 -175q-1 -6 -6 -10t-11 -3 t-10 6q-3 4 -3 9l9 97q3 42 3 89q-1 9 -1 17q0 58 -1 94t-4 106t-4 96q0 11 1 98v23l-3 75q0 4 3 8q4 4 10 6h3q5 0 9 -3q4 -4 5 -10q3 -30 3 -76v-23q-1 -50 -1 -76v-20q9 -262 9 -280q4 3 9 5l3 2l1 1q57 36 121 92t88 97q7 13 20 6t6 -20z"/>
<glyph glyph-name="l" horiz-adv-x="219" unicode="l" d="M119 775v-728q0 -15 -15 -15t-15 15v728q0 15 15 15t15 -15z"/>
<glyph glyph-name="m" horiz-adv-x="872" unicode="m" d="M113 488q0 -31 6 -88l1 -7q35 93 115 113q27 6 49 6q30 0 51 -11q52 -27 73 -143q4 -23 7 -51q12 41 32 75q26 42 65 74t85 42q12 3 24 3q49 0 83 -49q33 -46 49 -135q19 -98 19 -271q0 -15 -15 -15t-15 15q0 171 -18 266q-16 82 -44 122q-25 36 -60 36q-8 0 -17 -2 q-38 -8 -73 -36q-34 -28 -57 -66q-20 -32 -30 -76t-12 -75q-2 -32 -2 -86q0 -5 1 -15q1 -14 1 -19v-7q0 -20 -5 -33q-1 -1 -1 -2q-3 -6 -10 -7q-12 -4 -18 8q-1 3 -1 5v7v4t1 4v3q1 9 1 37v26v22q0 18 -3 35q-1 10 -2 19q-1 11 -2 26t-2 25q-4 51 -10 86q-18 101 -58 122 q-14 7 -34 7q-19 0 -44 -6q-65 -15 -95 -94q-15 -40 -21 -94q1 -9 1 -24v-16q0 -26 -1 -37q0 -50 2 -150h-6q-24 0 -26 15q-3 23 -3 48v28v34q0 38 1 49q0 28 2 54v18q-1 20 -8 90q-6 58 -6 91q0 15 15 15t15 -15z"/>
<glyph glyph-name="n" horiz-adv-x="554" unicode="n" d="M97 183v2q-1 29 -5 133t-9 161q0 7 4 11t10 4q7 0 11 -3q4 -4 5 -10q4 -50 7 -120q4 12 7 23q47 131 161 141l10 1q10 1 15 1q6 1 11 1q13 0 21 -4q89 -39 102 -212q4 -45 4 -134v-30l3 -79q0 -5 -3 -9q-4 -5 -10 -6t-11 3t-6 10q-3 23 -3 80v31q0 88 -3 131 q-13 155 -85 187q-5 2 -18 2q-5 -1 -14 -2t-11 -1q-94 -9 -134 -121q-27 -75 -29 -190q1 -8 3 -50t3 -64q0 -1 1 -5l1 -7q1 -6 1 -8t-1 -5t-3 -6q-5 -5 -12 -5h-2q-4 0 -6 2l-3 3l-1 2q-1 1 -1 2q-12 23 -12 65q0 12 1 32t1 28v15z"/>
<glyph glyph-name="o" horiz-adv-x="631" unicode="o" d="M127 422q-35 -20 -53 -91q-10 -40 -10 -77q0 -38 10 -72q22 -68 74 -107q33 -25 74 -35q19 -4 39 -4q25 0 51 6q48 10 95 42q51 36 76 96q19 46 19 94q0 16 -2 30q-8 64 -45 114q-29 38 -75 55q-37 14 -78 14q-10 0 -20 -1q-82 -5 -147 -49q1 -10 -8 -15zM78 416 q-3 9 3 16q37 36 89 58t110 26q10 1 20 1q48 -1 92 -17q52 -20 87 -64q43 -56 51 -128q2 -16 2 -32q0 -56 -22 -108q-28 -68 -87 -108q-51 -36 -105 -48q-28 -6 -55 -6q-24 0 -47 6q-47 10 -87 39q-59 45 -83 121q-13 39 -13 83q0 40 11 84q13 50 34 77z"/>
<glyph glyph-name="p" horiz-adv-x="641" unicode="p" d="M89 303q-4 4 -4 10q0 3 1 6l3 6q0 97 3 173q0 6 4 10t12 4q6 0 10 -4t4 -12q-2 -39 -3 -83q15 28 43 49q73 55 172 55q55 0 98 -25q44 -24 68 -64t34 -88q7 -33 8 -65q0 -16 -2 -32q-12 -107 -87 -167q-57 -45 -135 -45q-39 0 -83 11q-63 17 -114 79q1 -53 1 -100 q0 -117 -4 -195q0 -6 -5 -10t-11 -4t-10 5t-4 11q3 54 3 171q0 70 -1 163q-1 96 -1 141zM119 319q0 -49 1 -150q4 -2 6 -5q28 -39 54 -61t63 -31q41 -11 77 -11q67 0 115 38q64 51 75 148q2 17 2 33q0 42 -13 82q-17 54 -61 90t-104 35q-90 0 -154 -49q-30 -23 -42 -57 q-3 -7 -10 -34z"/>
<glyph glyph-name="q" horiz-adv-x="605" unicode="q" d="M470 374l-8 14q-5 9 -8 14l-8 11q-5 7 -10 12q-42 40 -90 56q-34 11 -65 11q-13 0 -25 -2q-42 -6 -80 -32q-58 -39 -84 -110q-14 -39 -14 -81q0 -35 10 -74q12 -49 47 -81t84 -43q26 -7 54 -7q21 0 43 4q50 9 88 37q41 31 67 111q-1 64 -1 114v46zM471 430l2 64q1 6 5 10 t10 4t11 -4q4 -4 4 -12q-2 -51 -3 -110l2 -4q4 -5 4 -9q0 -5 -6 -10v-51q0 -59 1 -150q1 -87 1 -156q0 -115 -3 -180q0 -6 -5 -10t-11 -4t-10 5t-4 11q4 75 4 189q0 57 -1 124q-20 -36 -50 -58q-44 -33 -101 -43q-24 -4 -47 -4q-32 0 -62 8q-56 14 -98 51t-56 94 q-10 42 -10 80q0 49 16 94q30 80 96 124q43 29 92 37q15 2 31 2q35 0 73 -12q54 -18 100 -63q8 -8 15 -17z"/>
<glyph glyph-name="r" horiz-adv-x="386" unicode="r" d="M109 328q-1 -10 -1 -28v-27v-48q0 -103 7 -168q1 -6 -3 -11t-10 -6h-2q-5 0 -9 3q-5 4 -6 10q-7 66 -7 171v49q1 67 1 115q0 72 -2 102q0 6 4 11t10 5t11 -4t5 -10q2 -33 3 -73q44 63 156 100q3 1 5 1q3 0 7 -2q6 -2 7 -8q1 -3 1 -5q0 -3 -2 -7q-2 -6 -8 -7 q-160 -53 -166 -159q0 -2 -1 -4z"/>
<glyph glyph-name="s" horiz-adv-x="460" unicode="s" d="M311 437q-19 41 -61 55q-20 7 -40 8q-20 0 -40 -8q-44 -14 -68 -48q-19 -27 -19 -61q0 -10 2 -20q4 -24 40 -38q12 -4 26 -8q14 -5 34 -9t32 -7q65 -17 97 -44q46 -40 46 -111q0 -42 -30 -69q-29 -27 -73 -38q-26 -7 -54 -7q-14 0 -28 2q-43 4 -71 21q-24 16 -49 51 q-4 5 -4 10q-1 6 7 12q12 8 21 -4q22 -31 41 -43q22 -14 58 -17q11 -1 22 -1l50 6q36 9 58 29t22 48q0 57 -35 88q-27 23 -85 38q-10 2 -31 7l-37 9q-15 4 -28 9q-52 20 -59 62q-2 13 -2 25q1 42 25 76q32 44 83 61q27 7 54 7h12q33 -2 64 -22t48 -57q7 -13 -7 -19t-21 7z "/>
<glyph glyph-name="t" horiz-adv-x="374" unicode="t" d="M104 496q-4 92 -4 126q0 15 15 15t15 -15q0 -33 4 -126q66 -1 100 -1q15 0 15 -15t-15 -15q-34 0 -99 1q1 -32 1 -59t-1 -50q1 -9 -1 -37t-2 -41t-2 -37v-40t2 -36t3 -39q5 -43 42 -69q21 -14 42 -14q17 0 33 9q13 7 20 -6q2 -5 2 -8q0 -7 -8 -12q-24 -14 -48 -14l-58 20 q-48 33 -55 90q-3 23 -4 45t-1 52v44q0 12 3 52q2 40 2 43q1 22 1 49t-1 58q-46 1 -77 1q-15 0 -15 15t15 15q31 0 76 -1z"/>
<glyph glyph-name="u" horiz-adv-x="549" unicode="u" d="M438 388q-2 -38 -2 -66v-28q2 -32 6 -112q4 -7 1 -14q3 -69 3 -113q0 -15 -15 -15t-15 15q0 31 -2 71q-82 -109 -179 -109q-23 0 -46 6q-63 17 -92 69q-34 60 -35 200q0 109 15 203q1 7 6 11t11 2q6 -1 10 -6t3 -11q-15 -92 -15 -199q1 -132 31 -186q23 -40 74 -53 q19 -5 38 -5q95 0 177 127q-4 81 -6 115q-1 13 0 30q0 28 2 68q2 64 11 114q1 6 7 10q4 3 8 2h3q5 0 9 -6q3 -4 3 -9z"/>
<glyph glyph-name="v" horiz-adv-x="493" unicode="v" d="M34 496q12 -20 21 -40t19 -53t13 -40q9 -25 38 -91q28 -64 39 -92l4 -13q4 -11 9 -27t9 -26l9 -27l5 14l14 31q7 17 10 22q30 54 72 161q49 124 68 165q6 14 20 8q9 -4 10 -13q0 -3 -2 -7q-19 -42 -68 -164q-44 -110 -74 -164q-2 -4 -9 -20l-13 -31q-8 -19 -13 -29 q-4 -6 -6 -10q-2 -3 -4 -5q-6 -5 -13 -5t-13 7l-3 6q-2 5 -6 13l-13 38q-3 11 -8 26l-9 26q-3 10 -4 14q-10 26 -39 90q-26 59 -38 93q-4 10 -14 41t-18 50t-19 36q-3 5 -3 9q-1 5 7 11q5 3 10 4q7 0 12 -8z"/>
<glyph glyph-name="w" horiz-adv-x="724" unicode="w" d="M45 498l27 -78l28 -85l25 -77q14 -45 24 -83l16 -69l2 -7l6 14q9 24 37 104l40 115q21 60 29 78q3 7 16 51q5 19 8 28q2 6 4 10q1 3 3 5v2t4 3t10 2q9 0 16 -10q4 -4 8 -12q5 -12 12 -33q4 -13 9 -33q5 -17 5 -19l22 -70q16 -47 28 -82t27 -66l41 -86l3 -5l5 24 q17 80 20 92q23 88 30 109l24 78q15 48 20 77q2 5 7 9t11 2t10 -6q3 -4 2 -8q0 -13 -21 -83l-25 -77l-30 -109q-4 -17 -19 -90q-5 -28 -8 -41q-3 -9 -4 -14q-1 -4 -3 -6t-2 -3q-4 -5 -9 -6h-2l-12 4q-2 2 -3 4q-3 3 -6 8q-5 9 -14 27q-16 31 -43 88q-14 32 -27 68t-28 84 l-22 68q-1 3 -6 21q-5 20 -9 32q-3 8 -5 15l-2 -9q-13 -47 -17 -55q-6 -13 -28 -76l-40 -115l-38 -105q-9 -23 -15 -35q-3 -7 -6 -11q-2 -3 -4 -5q-5 -4 -11 -5q-3 0 -7 2l-6 3l-1 2q-2 2 -3 5q-2 4 -4 10l-8 30l-17 69q-11 44 -23 83l-24 77l-28 83l-27 78q-1 3 -1 5 q0 3 2 7q2 6 8 7t12 -1t7 -8z"/>
<glyph glyph-name="x" horiz-adv-x="513" unicode="x" d="M67 496q26 -23 65 -78q39 -53 45 -60l36 -44l10 14l41 50q26 34 46 60t36 52q5 8 12 8q4 0 9 -3q13 -8 5 -21q-17 -27 -37 -54l-48 -60l-40 -50l-15 -19l178 -219q4 -5 4 -9q0 -5 -6 -11q-12 -10 -22 2l-173 212l-43 -58l-48 -64l-44 -56l-49 -60q-5 -6 -10 -6t-11 4 q-6 5 -6 11q0 5 5 11l49 60l44 58l49 64l45 60l-41 50q-9 12 -45 62t-61 72q-11 10 -1 21q5 6 11 6q5 0 10 -5z"/>
<glyph glyph-name="y" horiz-adv-x="465" unicode="y" d="M28 485q5 -17 13 -35l13 -30q5 -11 18 -34l16 -30q4 -8 20 -36t18 -31q58 -101 77 -166q29 88 133 354q2 7 8 9t12 0t8 -8q1 -3 1 -6q0 -2 -1 -5q-107 -276 -138 -370q-6 -19 -18 -61t-19 -68q-8 -26 -25 -60t-39 -60q-30 -35 -84 -35q-13 0 -28 2q-6 1 -10 6q-3 4 -3 9 q0 7 6 12q5 4 11 3q15 -3 28 -3q11 0 21 2q22 5 37 24q11 13 21 30q10 18 16 30t15 34q8 22 11 34l10 38q8 27 10 35q-2 3 -3 7q-13 76 -83 198q-2 4 -18 32l-20 35l-17 31q-13 23 -19 36l-13 31q-8 19 -13 36q-1 2 -1 5q0 2 2 6q3 6 9 8q2 1 4 1l6 -2q6 -3 8 -8z"/>
<glyph glyph-name="z" horiz-adv-x="472" unicode="z" d="M56 495q54 0 180 7q35 2 80 5l25 1q5 1 7 1h2h1h1h1q2 0 3 -1q6 -2 9 -8q2 -5 1 -12q-1 -3 -3 -7q-2 -6 -7 -14q-9 -14 -24 -35l-42 -56l-135 -169l-82 -105l-25 -33h4q19 -2 55 -3h69t47 1q22 0 67 1t67 1q15 0 15 -15t-15 -15q-22 0 -67 -1t-67 -1q-5 -1 -48 -1h-68 q-37 1 -58 3q-13 1 -21 3q-5 2 -9 4q-7 4 -9 12q0 4 1 8q0 2 1 3q1 2 3 5q2 4 7 11l27 36l83 105l134 168l42 55q12 17 19 29l-9 -1q-46 -3 -80 -5q-127 -7 -182 -7q-15 0 -15 15t15 15z"/>
<glyph glyph-name="braceleft" horiz-adv-x="340" unicode="{" d="M200 727q-19 9 -37 9t-36 -9q-39 -21 -45 -92q-2 -23 -2 -64v-38v-23q0 -4 -1 -20t-2 -22l-3 -21q-2 -14 -4 -23q-2 -8 -6 -20t-11 -22q-16 -26 -43 -45q10 -7 19 -15q41 -38 50 -84q7 -37 7 -114q1 -77 6 -109q9 -51 35 -76q32 -30 98 -30q15 0 15 -15t-15 -15 q-78 0 -118 38q-34 32 -44 94q-6 33 -7 113q0 74 -7 108q-7 37 -40 68l-23 18l-8 5l-3 2l-1 1l-2 2q-2 2 -3 6q-1 3 -1 6q0 6 5 12q4 3 9 5q1 0 4 1h2v1q25 16 39 39q5 8 9 18t5 16q1 8 3 20l3 18t2 22t1 20v22v36q0 44 2 68q7 87 61 115q25 14 51 14q24 0 48 -12 q14 -7 8 -21t-20 -7z"/>
<glyph glyph-name="bar" horiz-adv-x="227" unicode="|" d="M110 769q0 -53 -4 -225q-2 -98 -2 -170q0 -55 1 -95q2 -55 12 -211t10 -239q0 -15 -15 -15t-15 15q0 84 -10 239t-12 211q-1 40 -1 94q0 72 2 171q4 172 4 225q0 15 15 15t15 -15z"/>
<glyph glyph-name="braceright" horiz-adv-x="370" unicode="}" d="M33 758h16q76 0 112 -34q33 -31 34 -95q0 -22 -3 -56q0 -6 -2 -26t-3 -32q-2 -21 -2 -40q0 -41 8 -67q9 -27 31 -37l10 -5q8 -3 11 -4q15 -7 22 -18q4 -7 4 -14q0 -8 -5 -16q-4 -8 -15 -18q-9 -8 -11 -11q-36 -48 -40 -111v-18q0 -23 1 -67q1 -17 1 -31q0 -36 -4 -58 q-7 -49 -33 -77q-31 -34 -90 -41h-2q-5 0 -9 3q-5 4 -6 10t3 11t10 6q48 6 72 31q20 22 26 62q3 17 3 48q0 16 -1 35q-1 44 -1 68v20q5 72 46 127q4 5 15 15q7 6 9 10v1q-2 3 -7 6q-3 1 -10 3q-7 3 -11 5q-35 16 -47 57q-9 32 -9 79q0 18 1 39q1 11 3 31t3 27q2 32 2 53 q-1 51 -24 74q-27 25 -92 25h-14t-11 4t-5 10q0 6 4 12q4 4 10 4z"/>
<glyph glyph-name="asciitilde" horiz-adv-x="635" unicode="~" d="M61 294q29 45 73 74q41 27 80 27q13 0 25 -3q17 -4 37 -22t24 -21q71 -40 111 -40h2q45 2 96 56q10 11 21 1q6 -5 6 -11q0 -5 -5 -10q-59 -64 -117 -66h-2q-48 0 -126 44q-9 5 -31 25q-13 12 -24 14q-9 2 -19 2q-29 0 -62 -22q-38 -25 -65 -64q-5 -8 -11 -8q-4 0 -10 4 q-7 5 -7 11q0 4 4 9z"/>
<glyph glyph-name="quoteleft" horiz-adv-x="260" unicode="‘" d="M159 760q-48 -154 -66 -255q-1 -5 -6 -9q-4 -3 -9 -3h-2q-6 1 -10 6q-3 4 -3 9q0 48 68 262q1 5 7 8q3 2 7 2l5 -1q6 -1 8 -7q2 -3 2 -7q0 -3 -1 -5z"/>
<glyph glyph-name="quotedblleft" horiz-adv-x="372" unicode="“" d="M271 748q-7 -28 -42 -129q-27 -79 -39 -129q-2 -6 -8 -9t-11 -1q-6 2 -9 6q-3 6 -2 12q13 50 40 130q41 121 43 128q1 6 7 9t11 1q6 -2 9 -6q2 -3 2 -7q0 -3 -1 -5zM112 611q-37 -109 -46 -143q-2 -6 -8 -9q-4 -2 -7 -2q-2 1 -4 1q-6 2 -9 6q-2 4 -2 9v3q12 45 47 145 q32 92 44 142q2 5 7 9q4 2 7 3q2 -1 4 -1q5 -2 9 -6q3 -4 3 -8q0 -18 -45 -149z"/>
<glyph glyph-name="quotedblright" horiz-adv-x="377" unicode="”" d="M275 747q-20 -40 -40 -120q-24 -97 -37 -129q-2 -6 -8 -8t-12 0t-8 8t0 12q13 33 36 124q21 83 43 127q5 13 19 7q9 -4 9 -12q0 -4 -2 -9zM137 716q-4 -18 -11 -40l-10 -34q-4 -13 -13 -40l-11 -33l-14 -39q-12 -31 -13 -33q-1 -7 -7 -9q-3 -1 -7 -1q-3 0 -5 1q-6 2 -8 8 l-2 6q0 3 1 5q2 6 11 30l12 33l10 30q8 21 12 32l9 30q6 20 9 34l8 30q4 16 6 32q1 6 6 10q4 3 9 2h3q6 -1 10 -6q3 -4 2 -9q0 -7 -7 -39z"/>
</font>
</defs>
</svg>
